<svg width="56" height="56" viewBox="0 0 56 56" fill="none" xmlns="http://www.w3.org/2000/svg">
<rect width="56" height="56" rx="12" fill="#FAA52E"/>
<path d="M22 22L26.5 26.5M22 22H19L18 19L19 18L22 19V22ZM35.259 18.741L32.6314 21.3686C32.2354 21.7646 32.0373 21.9627 31.9632 22.191C31.8979 22.3918 31.8979 22.6082 31.9632 22.809C32.0373 23.0373 32.2354 23.2354 32.6314 23.6314L32.8686 23.8686C33.2646 24.2646 33.4627 24.4627 33.691 24.5368C33.8918 24.6021 34.1082 24.6021 34.309 24.5368C34.5373 24.4627 34.7354 24.2646 35.1314 23.8686L37.5893 21.4107C37.854 22.0549 38 22.7604 38 23.5C38 26.5376 35.5376 29 32.5 29C32.1338 29 31.7759 28.9642 31.4298 28.8959C30.9436 28.8001 30.7005 28.7521 30.5532 28.7668C30.3965 28.7824 30.3193 28.8059 30.1805 28.8802C30.0499 28.9501 29.919 29.081 29.657 29.343L22.5 36.5C21.6716 37.3284 20.3284 37.3284 19.5 36.5C18.6716 35.6716 18.6716 34.3284 19.5 33.5L26.657 26.343C26.919 26.081 27.0499 25.9501 27.1198 25.8195C27.1941 25.6807 27.2176 25.6035 27.2332 25.4468C27.2479 25.2995 27.1999 25.0564 27.1041 24.5702C27.0358 24.2241 27 23.8662 27 23.5C27 20.4624 29.4624 18 32.5 18C33.5055 18 34.448 18.2698 35.259 18.741ZM28.0001 30.9999L33.5 36.4999C34.3284 37.3283 35.6716 37.3283 36.5 36.4999C37.3284 35.6715 37.3284 34.3283 36.5 33.4999L31.9753 28.9753C31.655 28.945 31.3427 28.8872 31.0408 28.8043C30.6517 28.6975 30.2249 28.7751 29.9397 29.0603L28.0001 30.9999Z" stroke="white" stroke-width="2" stroke-linecap="round" stroke-linejoin="round"/>
</svg>
