<svg width="57" height="56" viewBox="0 0 57 56" fill="none" xmlns="http://www.w3.org/2000/svg">
<rect x="0.666748" width="56" height="56" rx="12" fill="#FAA52E"/>
<path d="M32.6667 34L34.6667 36L38.6667 32M38.6667 26H18.6667M38.6667 28V24.2C38.6667 23.0799 38.6667 22.5198 38.4488 22.092C38.257 21.7157 37.9511 21.4097 37.5747 21.218C37.1469 21 36.5869 21 35.4667 21H21.8667C20.7466 21 20.1866 21 19.7588 21.218C19.3824 21.4097 19.0765 21.7157 18.8847 22.092C18.6667 22.5198 18.6667 23.0799 18.6667 24.2V31.8C18.6667 32.9201 18.6667 33.4802 18.8847 33.908C19.0765 34.2843 19.3824 34.5903 19.7588 34.782C20.1866 35 20.7466 35 21.8667 35H28.6667" stroke="white" stroke-width="2" stroke-linecap="round" stroke-linejoin="round"/>
</svg>
