<svg width="478" height="140" viewBox="0 0 478 140" fill="none" xmlns="http://www.w3.org/2000/svg">
<path d="M94.9226 57.5535V82.4465C94.9226 92.2415 93.7692 100.758 91.4624 107.995C89.2179 115.232 85.9759 121.221 81.7363 125.963C77.5591 130.704 72.5714 134.229 66.7731 136.537C60.9749 138.846 54.5844 140 47.6016 140C41.9904 140 36.7533 139.283 31.8903 137.848C27.0272 136.35 22.6318 134.104 18.704 131.11C14.8385 128.053 11.5029 124.247 8.69734 119.693C5.89175 115.138 3.74079 109.773 2.24448 103.596C0.748158 97.3574 0 90.3075 0 82.4465V57.5535C0 47.6961 1.12224 39.18 3.36671 32.0053C5.67353 24.7683 8.94673 18.779 13.1863 14.0374C17.4259 9.2959 22.4448 5.77094 28.243 3.46257C34.0412 1.15419 40.4317 0 47.4145 0C53.0257 0 58.2317 0.748663 63.0323 2.24599C67.8954 3.68093 72.2908 5.92692 76.2186 8.98396C80.1465 11.9786 83.482 15.7531 86.2253 20.3075C89.0309 24.8619 91.1818 30.2585 92.6781 36.4973C94.1744 42.6738 94.9226 49.6925 94.9226 57.5535ZM63.4064 86.2834V53.5294C63.4064 49.1622 63.157 45.3565 62.6583 42.1123C62.2218 38.8681 61.536 36.123 60.6008 33.877C59.728 31.631 58.6369 29.8217 57.3276 28.4492C56.0184 27.0143 54.522 25.9848 52.8387 25.361C51.2177 24.6747 49.4096 24.3316 47.4145 24.3316C44.9207 24.3316 42.6762 24.8619 40.6811 25.9225C38.7484 26.9207 37.0962 28.5428 35.7246 30.7888C34.3529 33.0348 33.293 36.0294 32.5449 39.7727C31.8591 43.516 31.5162 48.1016 31.5162 53.5294V86.2834C31.5162 90.713 31.7344 94.5811 32.1708 97.8877C32.6696 101.132 33.3554 103.908 34.2282 106.217C35.1634 108.463 36.2857 110.303 37.595 111.738C38.9042 113.111 40.4006 114.109 42.0839 114.733C43.7673 115.357 45.6065 115.668 47.6016 115.668C50.0331 115.668 52.2152 115.169 54.148 114.171C56.0807 113.173 57.7329 111.551 59.1045 109.305C60.5385 106.996 61.5984 103.971 62.2842 100.227C63.0323 96.4216 63.4064 91.7736 63.4064 86.2834Z" fill="#FAA52E"/>
<ellipse cx="114.917" cy="70" rx="7.99426" ry="8" fill="#FAA52E"/>
<path d="M229.834 57.5535V82.4465C229.834 92.2415 228.68 100.758 226.374 107.995C224.129 115.232 220.887 121.221 216.647 125.963C212.47 130.704 207.482 134.229 201.684 136.537C195.886 138.846 189.496 140 182.513 140C176.902 140 171.664 139.283 166.801 137.848C161.938 136.35 157.543 134.104 153.615 131.11C149.75 128.053 146.414 124.247 143.608 119.693C140.803 115.138 138.652 109.773 137.156 103.596C135.659 97.3574 134.911 90.3075 134.911 82.4465V57.5535C134.911 47.6961 136.033 39.18 138.278 32.0053C140.585 24.7683 143.858 18.779 148.097 14.0374C152.337 9.2959 157.356 5.77094 163.154 3.46257C168.952 1.15419 175.343 0 182.326 0C187.937 0 193.143 0.748663 197.943 2.24599C202.807 3.68093 207.202 5.92692 211.13 8.98396C215.058 11.9786 218.393 15.7531 221.136 20.3075C223.942 24.8619 226.093 30.2585 227.589 36.4973C229.086 42.6738 229.834 49.6925 229.834 57.5535ZM198.318 86.2834V53.5294C198.318 49.1622 198.068 45.3565 197.569 42.1123C197.133 38.8681 196.447 36.123 195.512 33.877C194.639 31.631 193.548 29.8217 192.239 28.4492C190.929 27.0143 189.433 25.9848 187.75 25.361C186.129 24.6747 184.321 24.3316 182.326 24.3316C179.832 24.3316 177.587 24.8619 175.592 25.9225C173.66 26.9207 172.007 28.5428 170.636 30.7888C169.264 33.0348 168.204 36.0294 167.456 39.7727C166.77 43.516 166.427 48.1016 166.427 53.5294V86.2834C166.427 90.713 166.646 94.5811 167.082 97.8877C167.581 101.132 168.267 103.908 169.139 106.217C170.075 108.463 171.197 110.303 172.506 111.738C173.815 113.111 175.312 114.109 176.995 114.733C178.678 115.357 180.518 115.668 182.513 115.668C184.944 115.668 187.126 115.169 189.059 114.171C190.992 113.173 192.644 111.551 194.016 109.305C195.45 106.996 196.51 103.971 197.195 100.227C197.943 96.4216 198.318 91.7736 198.318 86.2834Z" fill="#FAA52E"/>
<ellipse cx="249.828" cy="70" rx="7.99426" ry="8" fill="#FAA52E"/>
<path d="M302.179 56.8604H317.384C321.278 56.8604 324.461 56.1746 326.934 54.8029C329.468 53.369 331.353 51.3739 332.589 48.8176C333.825 46.1991 334.443 43.1129 334.443 39.5591C334.443 36.8159 333.856 34.2908 332.682 31.984C331.569 29.6771 329.839 27.8379 327.49 26.4663C325.141 25.0323 322.143 24.3153 318.497 24.3153C316.024 24.3153 313.614 24.8452 311.265 25.9051C308.916 26.9027 306.969 28.3367 305.424 30.2071C303.941 32.0775 303.199 34.3531 303.199 37.0341H271.862C271.862 29.3031 273.963 22.6943 278.166 17.2077C282.431 11.6589 288.025 7.41928 294.948 4.48898C301.932 1.49633 309.442 0 317.477 0C327.057 0 335.463 1.49633 342.695 4.48898C349.926 7.41928 355.551 11.7836 359.569 17.5818C363.648 23.3177 365.688 30.4253 365.688 38.9045C365.688 43.5805 364.606 47.976 362.443 52.0908C360.279 56.2057 357.251 59.8219 353.357 62.9392C349.463 66.0566 344.889 68.5193 339.635 70.3273C334.443 72.073 328.757 72.9459 322.576 72.9459H302.179V56.8604ZM302.179 80.334V64.6226H322.576C329.313 64.6226 335.463 65.4019 341.026 66.9606C346.589 68.4569 351.379 70.7014 355.396 73.6941C359.414 76.6867 362.504 80.3963 364.668 84.823C366.831 89.1873 367.913 94.2062 367.913 99.8798C367.913 106.239 366.646 111.913 364.112 116.9C361.577 121.888 358.023 126.097 353.45 129.526C348.876 132.955 343.529 135.573 337.41 137.381C331.291 139.127 324.647 140 317.477 140C311.852 140 306.228 139.252 300.603 137.756C294.978 136.197 289.848 133.828 285.213 130.648C280.577 127.406 276.838 123.291 273.994 118.303C271.213 113.253 269.822 107.237 269.822 100.254H301.159C301.159 103.122 301.932 105.74 303.477 108.11C305.084 110.416 307.217 112.256 309.874 113.627C312.532 114.999 315.406 115.685 318.497 115.685C322.329 115.685 325.574 114.968 328.232 113.534C330.951 112.037 333.022 110.042 334.443 107.548C335.865 105.055 336.576 102.28 336.576 99.2251C336.576 94.6114 335.803 90.933 334.258 88.1897C332.774 85.4464 330.58 83.4513 327.675 82.2044C324.832 80.9575 321.402 80.334 317.384 80.334H302.179Z" fill="#FAA52E"/>
<path d="M451.455 0H456.505V24.7829H454.822C448.774 24.7829 443.101 25.6246 437.801 27.3079C432.564 28.9913 427.951 31.5475 423.961 34.9766C420.033 38.3434 416.947 42.6141 414.702 47.7889C412.52 52.9637 411.429 59.0425 411.429 66.0254V89.8731C411.429 94.2374 411.803 98.0405 412.551 101.283C413.299 104.525 414.422 107.206 415.918 109.325C417.414 111.445 419.253 113.035 421.436 114.095C423.68 115.155 426.267 115.685 429.198 115.685C431.629 115.685 433.874 115.124 435.931 114.001C437.989 112.879 439.765 111.289 441.262 109.232C442.82 107.174 444.005 104.774 444.815 102.031C445.626 99.2875 446.031 96.2948 446.031 93.0528C446.031 89.5613 445.595 86.4128 444.722 83.6072C443.849 80.8016 442.602 78.4324 440.981 76.4997C439.422 74.5046 437.521 73.0082 435.276 72.0107C433.094 70.9508 430.694 70.4208 428.075 70.4208C424.085 70.4208 420.687 71.3249 417.882 73.1329C415.139 74.8786 413.05 77.1231 411.616 79.8664C410.244 82.6097 409.558 85.3841 409.558 88.1897L401.983 80.521C401.859 76.7802 402.576 72.9147 404.134 68.9245C405.693 64.9343 408.031 61.2247 411.148 57.7956C414.266 54.3665 418.162 51.5921 422.838 49.4723C427.514 47.3525 432.938 46.2926 439.111 46.2926C445.345 46.2926 450.832 47.4772 455.57 49.8464C460.371 52.2155 464.392 55.5199 467.634 59.7595C470.939 63.9991 473.433 68.9557 475.116 74.6293C476.799 80.3028 477.641 86.444 477.641 93.0528C477.641 99.7239 476.456 105.927 474.087 111.663C471.78 117.337 468.507 122.293 464.268 126.533C460.028 130.773 455.009 134.077 449.211 136.446C443.413 138.815 437.022 140 430.039 140C422.869 140 416.23 138.784 410.12 136.353C404.072 133.859 398.773 130.274 394.221 125.598C389.732 120.859 386.21 115.092 383.654 108.297C381.16 101.501 379.913 93.8009 379.913 85.1971V73.6941C379.913 62.0352 381.814 51.6544 385.617 42.5518C389.483 33.4491 394.72 25.7493 401.329 19.4522C408 13.0929 415.637 8.26097 424.241 4.95658C432.845 1.65219 441.916 0 451.455 0Z" fill="#FAA52E"/>
</svg>
